# xmcd
#
# Track frame offsets: 
#        150
#        12055
#        22320
#        32718
#        47523
#        53298
#        65568
#        75882
#        86178
#        100833
#        112646
#        117519
#        128934
#
# Disc length: 1935 seconds
#
# Revision: 0
# Processed by: cddbd v1.5.2PL0 Copyright (c) Steve Scherf et al.
# Submitted via: ExactAudioCopy v0.95a5
#
DISCID=98078d0d
DTITLE=Cantigas para brincar - Cantigas para brincar
DYEAR=2008
DGENRE=Anime
TTITLE0=Escravos de Jó
TTITLE1=Ciranda, cirandinha
TTITLE2=Atirei o pau no gato
TTITLE3=Pirulito que bate bate
TTITLE4=Dança infantil
TTITLE5=Sapo cururu
TTITLE6=Teresinha de Jesus
TTITLE7=Capelinha de melão
TTITLE8=Carneirinho - Carneirão
TTITLE9=Mimoso passarinho
TTITLE10=Onde está a margarida
TTITLE11=Lá na ponte da vizinhança
TTITLE12=Skindo-le-lê
EXTD=
EXTT0=
EXTT1=
EXTT2=
EXTT3=
EXTT4=
EXTT5=
EXTT6=
EXTT7=
EXTT8=
EXTT9=
EXTT10=
EXTT11=
EXTT12=
PLAYORDER=
